<svg xmlns="http://www.w3.org/2000/svg" viewBox="0 0 216.11 27.21" fill="#306944">
  <g id="Layer_2" data-name="Layer 2">
    <g id="Layer_1-2" data-name="Layer 1">
      <path
        d="M95.34,15c-4.48-2.62-9.88-3.44-15-3.5-11.84-.13-23.53,4.59-35,7.08-8.23,1.79-19.94,4.17-28,.67-5.56-2.4-4.68-9.24.87-10.72a4.66,4.66,0,0,1,5.86,2.88c1.6,4.85-5.89,4.4-3.06-.14.28-.45-.39-1-.73-.57-1.7,2-2.09,5.56,1.43,6s4.53-3.69,3.16-6.32C21.13,3.17,9.51,9.6,13.45,17.1c2.1,4,8.12,4.43,12,4.58,6.69.25,13.65-.89,20.16-2.23,9.12-1.88,18-4.88,27.16-6.38a41.22,41.22,0,0,1,15,.14c4.6,1,11.9,4.44,13.34,9.3.18.61,1.18.52,1.13-.15C101.94,18.67,98.23,16.68,95.34,15Z" />
      <path d="M108.05,19.4a1.23,1.23,0,0,0,0,2.45A1.23,1.23,0,0,0,108.05,19.4Z" />
      <path
        d="M105.59,15a11.32,11.32,0,0,0-1.28-2.07,12.4,12.4,0,0,0-1.61-2c-.24-.23-.75,0-.61.35a12.23,12.23,0,0,0,1.3,2.17,12.41,12.41,0,0,0,1.57,2A.4.4,0,0,0,105.59,15Z" />
      <path d="M108.47,10.48a.42.42,0,0,0-.84,0,10,10,0,0,0,0,3.58.42.42,0,0,0,.81,0A10.25,10.25,0,0,0,108.47,10.48Z" />
      <path
        d="M75.18,8.63a8.2,8.2,0,0,0-6.11-3.1.41.41,0,0,0-.11.8,19.43,19.43,0,0,1,5.58,3.13C75.05,9.84,75.56,9.06,75.18,8.63Z" />
      <path
        d="M60.92,6.72a.42.42,0,0,0-.11.83A21.68,21.68,0,0,1,64.07,9c.92.54,1.65,1.33,2.54,1.9a.37.37,0,0,0,.53-.41C66.49,8.15,63.2,6.55,60.92,6.72Z" />
      <path
        d="M60,12.45c-1.74-2.15-4.68-3.12-7.37-3.34a.44.44,0,0,0-.22.81c2.4,1.09,4.91,1.62,7.09,3.19C59.92,13.4,60.29,12.79,60,12.45Z" />
      <path
        d="M51.76,14.57A22.12,22.12,0,0,0,49.17,13a20.43,20.43,0,0,0-2.81-1.49c-.49-.18-.7.45-.45.77a8.39,8.39,0,0,0,5.66,3C52,15.27,52,14.76,51.76,14.57Z" />
      <path
        d="M44,16.5a22.21,22.21,0,0,0-5.51-3.32c-.34-.14-.86.19-.58.58,1.26,1.76,3.7,2.79,5.74,3.33C43.93,17.18,44.23,16.74,44,16.5Z" />
      <path
        d="M36.39,18.18c-.71-.59-1.41-1.16-2.16-1.69a16.59,16.59,0,0,0-2.73-1.85c-.37-.17-.84.19-.6.6,1,1.73,3.25,2.72,5,3.62C36.28,19.07,36.78,18.51,36.39,18.18Z" />
      <path
        d="M76.67,14.87c-.68.68-1.26,1.43-1.89,2.15s-1.38,1.46-2,2.22c-.31.37.08,1,.53.69a10.2,10.2,0,0,0,4-4.58C77.44,15,77,14.54,76.67,14.87Z" />
      <path
        d="M70.25,15.44a34.38,34.38,0,0,0-1.82,3.18,14.74,14.74,0,0,1-2.48,3c-.38.36.1.89.53.69,2.42-1.12,4-4,4.66-6.53A.49.49,0,0,0,70.25,15.44Z" />
      <path
        d="M62.77,17.25a31.92,31.92,0,0,1-2,3.32,17.84,17.84,0,0,1-2.94,2.95c-.32.28,0,.89.42.73,2.8-1.11,4.29-4,5.15-6.74A.33.33,0,0,0,62.77,17.25Z" />
      <path
        d="M55.31,19.55c-.85.9-1.52,2-2.3,2.92s-1.8,1.75-2.69,2.64c-.29.3,0,.93.44.75A10.14,10.14,0,0,0,56,19.93.39.39,0,0,0,55.31,19.55Z" />
      <path
        d="M46.84,21.37a13.56,13.56,0,0,1-5.49,4.77c-.45.23-.12.83.32.76a7.42,7.42,0,0,0,5.86-5.24A.38.38,0,0,0,46.84,21.37Z" />
      <path
        d="M38.05,22.86a46.29,46.29,0,0,1-7.13,3.52.45.45,0,0,0,.23.83c2.8-.26,5.79-1.46,7.37-3.87A.35.35,0,0,0,38.05,22.86Z" />
      <path
        d="M26.4,23.61a17,17,0,0,1-6.74,1.91c-.46,0-.65.78-.11.87,2.59.46,5.56-.06,7.35-2.14A.41.41,0,0,0,26.4,23.61Z" />
      <path
        d="M15.27,22.71A22.45,22.45,0,0,1,11.36,24a47.17,47.17,0,0,1-5.18.42.46.46,0,0,0-.12.9,9.94,9.94,0,0,0,9.66-1.85C16,23.19,15.71,22.52,15.27,22.71Z" />
      <path
        d="M10.32,18.68c-1.65-.54-3.36-.8-5-1.35S2.18,15.94.56,15.38a.46.46,0,0,0-.44.76,13.35,13.35,0,0,0,10.06,3.51A.5.5,0,0,0,10.32,18.68Z" />
      <path
        d="M8.49,12.45a13,13,0,0,1-3.15-3,32.15,32.15,0,0,1-2-3.72.47.47,0,0,0-.87.24c-.09,1.67,1,3.38,2,4.63S6.68,13,8.32,13.08C8.68,13.1,8.74,12.63,8.49,12.45Z" />
      <path
        d="M10.92,7.07C9.19,5,9.9,2.84,9.71.46A.46.46,0,0,0,8.85.23a6.49,6.49,0,0,0,1.4,7.51A.47.47,0,0,0,10.92,7.07Z" />
      <path
        d="M120.77,15c4.48-2.62,9.89-3.44,15-3.5,11.84-.13,23.54,4.59,35,7.08,8.24,1.79,19.94,4.17,28,.67,5.56-2.4,4.67-9.24-.88-10.72a4.66,4.66,0,0,0-5.86,2.88c-1.59,4.85,5.89,4.4,3.06-.14-.28-.45.39-1,.73-.57,1.7,2,2.09,5.56-1.43,6s-4.53-3.69-3.16-6.32C195,3.17,206.6,9.6,202.66,17.1c-2.1,4-8.11,4.43-12,4.58-6.69.25-13.64-.89-20.16-2.23-9.12-1.88-18-4.88-27.16-6.38a41.16,41.16,0,0,0-15,.14c-4.6,1-11.9,4.44-13.35,9.3-.18.61-1.18.52-1.13-.15C114.18,18.67,117.88,16.68,120.77,15Z" />
      <path d="M108.06,19.4a1.23,1.23,0,0,1,0,2.45A1.23,1.23,0,0,1,108.06,19.4Z" />
      <path
        d="M110.52,15a11.37,11.37,0,0,1,1.29-2.07,12.35,12.35,0,0,1,1.6-2c.24-.23.76,0,.61.35a12.8,12.8,0,0,1-1.29,2.17,11.94,11.94,0,0,1-1.58,2A.4.4,0,0,1,110.52,15Z" />
      <path d="M107.64,10.48a.42.42,0,0,1,.84,0,10.25,10.25,0,0,1,0,3.58.42.42,0,0,1-.81,0A10,10,0,0,1,107.64,10.48Z" />
      <path
        d="M140.93,8.63a8.22,8.22,0,0,1,6.12-3.1.41.41,0,0,1,.11.8,19.48,19.48,0,0,0-5.59,3.13C141.07,9.84,140.55,9.06,140.93,8.63Z" />
      <path
        d="M155.19,6.72a.42.42,0,0,1,.11.83A21.68,21.68,0,0,0,152,9c-.92.54-1.65,1.33-2.54,1.9a.37.37,0,0,1-.53-.41C149.62,8.15,152.91,6.55,155.19,6.72Z" />
      <path
        d="M156.1,12.45c1.75-2.15,4.68-3.12,7.37-3.34a.44.44,0,0,1,.22.81c-2.39,1.09-4.91,1.62-7.09,3.19C156.19,13.4,155.82,12.79,156.1,12.45Z" />
      <path
        d="M164.35,14.57A22.24,22.24,0,0,1,167,13a19.34,19.34,0,0,1,2.81-1.49c.48-.18.7.45.45.77a8.42,8.42,0,0,1-5.67,3C164.14,15.27,164.09,14.76,164.35,14.57Z" />
      <path
        d="M172.17,16.5a22,22,0,0,1,5.51-3.32c.34-.14.85.19.57.58-1.26,1.76-3.7,2.79-5.74,3.33A.35.35,0,0,1,172.17,16.5Z" />
      <path
        d="M179.72,18.18c.71-.59,1.41-1.16,2.16-1.69a16.59,16.59,0,0,1,2.73-1.85c.38-.17.84.19.6.6-1,1.73-3.24,2.72-5,3.62C179.83,19.07,179.33,18.51,179.72,18.18Z" />
      <path
        d="M139.44,14.87c.68.68,1.26,1.43,1.9,2.15s1.37,1.46,2,2.22c.31.37-.08,1-.53.69a10.12,10.12,0,0,1-4-4.58C138.67,15,139.11,14.54,139.44,14.87Z" />
      <path
        d="M145.87,15.44c.72,1,1.19,2.14,1.82,3.18a15,15,0,0,0,2.47,3c.38.36-.1.89-.53.69-2.41-1.12-4-4-4.65-6.53A.49.49,0,0,1,145.87,15.44Z" />
      <path
        d="M153.35,17.25a31.84,31.84,0,0,0,2,3.32,18.23,18.23,0,0,0,2.94,2.95c.32.28,0,.89-.42.73-2.8-1.11-4.29-4-5.15-6.74A.34.34,0,0,1,153.35,17.25Z" />
      <path
        d="M160.81,19.55c.84.9,1.51,2,2.3,2.92a37.09,37.09,0,0,0,2.68,2.64c.3.3,0,.93-.44.75a10.14,10.14,0,0,1-5.19-5.93A.39.39,0,0,1,160.81,19.55Z" />
      <path
        d="M169.27,21.37a13.56,13.56,0,0,0,5.49,4.77c.45.23.12.83-.32.76a7.42,7.42,0,0,1-5.86-5.24A.38.38,0,0,1,169.27,21.37Z" />
      <path
        d="M178.06,22.86a46.29,46.29,0,0,0,7.13,3.52.45.45,0,0,1-.22.83c-2.8-.26-5.8-1.46-7.38-3.87C177.4,23.05,177.78,22.67,178.06,22.86Z" />
      <path
        d="M189.71,23.61a17.07,17.07,0,0,0,6.74,1.91c.46,0,.65.78.12.87-2.59.46-5.57-.06-7.35-2.14A.41.41,0,0,1,189.71,23.61Z" />
      <path
        d="M200.84,22.71A22.45,22.45,0,0,0,204.75,24a47.17,47.17,0,0,0,5.18.42.46.46,0,0,1,.13.9,10,10,0,0,1-9.67-1.85C200.07,23.19,200.4,22.52,200.84,22.71Z" />
      <path
        d="M205.8,18.68c1.64-.54,3.35-.8,5-1.35s3.14-1.39,4.76-1.95a.46.46,0,0,1,.44.76,13.34,13.34,0,0,1-10.06,3.51A.5.5,0,0,1,205.8,18.68Z" />
      <path
        d="M207.63,12.45a12.91,12.91,0,0,0,3.14-3,32.22,32.22,0,0,0,2-3.72.47.47,0,0,1,.87.24c.08,1.67-1,3.38-2,4.63s-2.17,2.42-3.8,2.51C207.44,13.1,207.37,12.63,207.63,12.45Z" />
      <path
        d="M205.19,7.07c1.73-2,1-4.23,1.21-6.61a.46.46,0,0,1,.86-.23,6.5,6.5,0,0,1-1.39,7.51A.48.48,0,0,1,205.19,7.07Z" />
    </g>
  </g>
</svg>